<?xml version="1.0" encoding="iso-8859-1"?>
<!-- Generator: Adobe Illustrator 19.0.0, SVG Export Plug-In . SVG Version: 6.00 Build 0)  -->
<svg version="1.1" id="Capa_1" xmlns="http://www.w3.org/2000/svg" xmlns:xlink="http://www.w3.org/1999/xlink" x="0px" y="0px"
	 viewBox="0 0 436.904 436.904" style="enable-background:new 0 0 436.904 436.904;" xml:space="preserve">
<g>
	<g>
		<path d="M367.339,74.504c-9-45.3-41.8-74.5-83.8-74.5c-21.2,0-43.6,7.7-65,22.5c-22-14.9-44-22.5-65.3-22.5
			c-20.1-0.2-39.6,7.3-54.5,20.8c-14.8,13.4-24.8,32.1-29.1,54.2c-6.6,34.7,1.8,72.3,23.7,105.9c19.8,30.3,50,56.3,88.3,76.2
			l-9.3,33.2c-0.8,3.1-0.2,6.4,1.7,9c1.9,2.5,4.8,4.1,8,4.2h22.6c-1.5,1-3.6,3.2-6.1,5.2c-7.1,5.9-16.9,13.9-16.9,29.5
			c0,16,9.9,24.1,17.1,30.1c6.5,5.4,9.7,8.3,9.7,14.2c0,6.1-3.2,9-9.8,14.5c-7.2,6-17,14.2-17,29.9c0,5.5,4.5,10,10,10s10-4.5,10-10
			c0-6.1,3.2-9,9.8-14.6c7.2-6,17-14.2,17-29.9c0-15.6-9.8-23.7-16.9-29.6c-6.7-5.5-9.9-8.5-9.9-14.8c0-6,3.1-8.6,9.7-14
			c5.7-4.7,12.9-10.6,15.8-20.6h27.6c5.7-0.2,10.2-4.9,10-10.6c0-0.8-0.1-1.6-0.4-2.4l-9.2-33.3
			C347.339,208.804,378.339,132.704,367.339,74.504z M195.139,283.604l4.8-17.4c3.6,1.6,7.3,3,11,4.5c2.4,1,5,1.4,7.7,1.3
			c2.6,0.1,5.3-0.4,7.7-1.4c3.6-1.5,7-2.7,10.5-4.3l4.7,17.3H195.139z M219.039,252.004c-0.3,0-0.6,0-0.9,0
			c-103.9-41.7-139.6-116.9-128.9-173.1c7-35.7,32.1-58.8,64-58.8c18.9,0,38.9,7.7,59.4,22.8c3.6,2.6,8.4,2.6,12-0.1
			c19.4-14.7,40.3-22.7,58.8-22.7c15.1-0.2,29.8,5.3,41.1,15.4c11.5,10.3,19.4,25.2,22.9,42.9
			C358.239,134.104,322.739,209.404,219.039,252.004z"/>
	</g>
</g>
<g>
</g>
<g>
</g>
<g>
</g>
<g>
</g>
<g>
</g>
<g>
</g>
<g>
</g>
<g>
</g>
<g>
</g>
<g>
</g>
<g>
</g>
<g>
</g>
<g>
</g>
<g>
</g>
<g>
</g>
</svg>
