<?xml version="1.0" encoding="iso-8859-1"?>
<!-- Generator: Adobe Illustrator 21.0.0, SVG Export Plug-In . SVG Version: 6.00 Build 0)  -->
<svg version="1.1" id="Capa_1" xmlns="http://www.w3.org/2000/svg" xmlns:xlink="http://www.w3.org/1999/xlink" x="0px" y="0px"
	 viewBox="0 0 511.997 511.997" style="enable-background:new 0 0 511.997 511.997;" xml:space="preserve">
<g>
	<path style="fill:#5E5F62;" d="M125.707,511.997c4.609,0.007,8.42-3.59,8.678-8.192c0.116-1.984,0.174-4.079,0.174-6.283
		c0.311-14.325-2.946-28.502-9.476-41.255c-10.506-21.422-10.506-46.5,0-67.922c6.513-12.748,9.752-26.917,9.424-41.229
		c0-4.793-3.885-8.678-8.678-8.678s-8.678,3.885-8.678,8.678c0.331,11.805-2.383,23.496-7.88,33.948
		c-12.623,26.031-12.623,56.41,0,82.441c5.503,10.475,8.217,22.19,7.88,34.018c0,1.863-0.046,3.633-0.139,5.311
		c-0.132,2.305,0.659,4.568,2.2,6.288c1.541,1.72,3.703,2.755,6.009,2.876H125.707z"/>
	<g>
		<path style="fill:#804169;" d="M125.829,109.617C100.255,61.098,49.098,61.098,23.524,85.362s-25.583,72.782,0,121.309
			c17.903,36.395,63.939,72.756,102.305,97.054c38.365-24.298,84.402-60.659,102.305-97.054c25.583-48.527,25.583-97.054,0-121.309
			S151.403,61.098,125.829,109.617z"/>
		<path style="fill:#804169;" d="M125.829,303.726l23.431,29.288c2.086,2.605,2.493,6.175,1.047,9.183
			c-1.446,3.008-4.488,4.92-7.825,4.919h-33.306c-3.337,0.001-6.379-1.911-7.825-4.919c-1.446-3.008-1.038-6.578,1.047-9.183
			L125.829,303.726z"/>
	</g>
	<g>
		<g>
			<path style="fill:#955BA5;" d="M87.446,219.445c2.812,2.777,5.791,5.574,8.938,8.392c2.343,2.059,3.401,5.218,2.771,8.273
				c-0.631,3.055-2.852,5.537-5.819,6.5c-2.967,0.963-6.223,0.26-8.528-1.843c-3.361-3.014-6.543-6.002-9.546-8.964
				c-2.414-2.124-3.455-5.408-2.707-8.535c0.748-3.127,3.164-5.584,6.277-6.385c3.114-0.801,6.415,0.185,8.579,2.562H87.446z"/>
			<path style="fill:#955BA5;" d="M41.462,104.254c6.407-5.79,14.77-8.934,23.404-8.799c4.793,0,8.678,3.885,8.678,8.678
				s-3.885,8.678-8.678,8.678c-4.185-0.097-8.262,1.338-11.464,4.035c-7.567,7.177-10.101,34.261,8.565,69.658l0.443,0.868
				c2.198,4.256,0.532,9.488-3.723,11.689c-1.226,0.642-2.59,0.975-3.975,0.972c-3.249,0.007-6.229-1.802-7.723-4.686l-0.417-0.816
				C24.626,152.885,27.386,117.583,41.462,104.254z"/>
		</g>
		<path style="fill:#5E5F62;" d="M386.289,511.997c-4.609,0.007-8.42-3.59-8.678-8.192c-0.116-1.984-0.174-4.079-0.174-6.283
			c-0.311-14.325,2.946-28.502,9.476-41.255c10.506-21.422,10.506-46.5,0-67.922c-6.513-12.748-9.752-26.917-9.424-41.229
			c0-4.793,3.885-8.678,8.678-8.678c4.793,0,8.678,3.885,8.678,8.678c-0.331,11.805,2.383,23.496,7.88,33.948
			c12.623,26.031,12.623,56.41,0,82.441c-5.503,10.475-8.217,22.19-7.88,34.018c0,1.863,0.046,3.633,0.139,5.311
			c0.132,2.305-0.659,4.568-2.2,6.288c-1.541,1.72-3.703,2.755-6.009,2.876H386.289z"/>
	</g>
	<g>
		<path style="fill:#F0C419;" d="M386.168,109.617c25.574-48.519,76.731-48.519,102.305-24.255s25.583,72.782,0,121.309
			c-17.903,36.395-63.939,72.756-102.305,97.054c-38.365-24.298-84.402-60.659-102.305-97.054
			c-25.583-48.527-25.583-97.054,0-121.309S360.594,61.098,386.168,109.617z"/>
		<path style="fill:#F0C419;" d="M386.168,303.726l-23.431,29.288c-2.086,2.605-2.493,6.175-1.047,9.183
			c1.446,3.008,4.488,4.92,7.825,4.919h33.306c3.337,0.001,6.379-1.911,7.825-4.919c1.446-3.008,1.038-6.578-1.047-9.183
			L386.168,303.726z"/>
	</g>
	<path style="fill:#5E5F62;" d="M238.642,511.997c-4.793,0-8.678-3.885-8.678-8.678c-0.312-14.322,2.944-28.497,9.476-41.246
		c10.501-21.435,10.501-46.522,0-67.957c-6.531-12.75-9.788-26.924-9.476-41.246c-0.312-14.316,2.945-28.485,9.476-41.229
		c5.497-10.452,8.211-22.143,7.88-33.948c0-4.793,3.885-8.678,8.678-8.678s8.678,3.885,8.678,8.678
		c0.312,14.316-2.945,28.485-9.476,41.229c-5.497,10.452-8.211,22.143-7.88,33.948c-0.33,11.813,2.383,23.513,7.88,33.974
		c12.635,26.046,12.635,56.447,0,82.493c-5.497,10.465-8.21,22.167-7.88,33.983c0,2.302-0.914,4.509-2.542,6.136
		C243.151,511.083,240.944,511.997,238.642,511.997z"/>
	<path style="fill:#FF5364;" d="M255.998,40.193c25.574-48.519,76.731-48.519,102.305-24.255c25.574,24.264,25.583,72.782,0,121.309
		c-17.903,36.395-63.939,72.756-102.305,97.054c-38.365-24.298-84.402-60.659-102.305-97.054
		c-25.583-48.527-25.583-97.054,0-121.309S230.424-8.325,255.998,40.193z"/>
	<g>
		<path style="fill:#FB7B76;" d="M226.537,158.413c-3.141-2.812-6.121-5.609-8.938-8.392c-2.164-2.377-5.466-3.363-8.579-2.562
			c-3.114,0.801-5.529,3.258-6.277,6.385c-0.748,3.127,0.294,6.411,2.707,8.535c3.003,2.962,6.185,5.95,9.546,8.964
			c3.571,3.199,9.059,2.898,12.258-0.673c3.199-3.571,2.898-9.058-0.673-12.258H226.537z"/>
		<path style="fill:#FB7B76;" d="M195.01,26.031c-8.642-0.143-17.016,2.999-23.431,8.791c-14.084,13.338-16.844,48.64,5.068,90.251
			l0.451,0.868c1.494,2.885,4.475,4.693,7.723,4.686c1.384,0.003,2.748-0.33,3.975-0.972c4.254-2.201,5.921-7.433,3.723-11.689
			l-0.477-0.929C173.41,81.7,175.944,54.616,183.52,47.431c3.207-2.706,7.294-4.145,11.49-4.044c4.793,0,8.678-3.885,8.678-8.678
			S199.802,26.031,195.01,26.031z"/>
	</g>
	<path style="fill:#FF5364;" d="M255.998,234.302l-23.431,29.288c-2.086,2.605-2.493,6.175-1.047,9.183
		c1.446,3.008,4.488,4.92,7.825,4.919h33.306c3.337,0.001,6.379-1.911,7.825-4.919s1.038-6.578-1.047-9.183L255.998,234.302z"/>
	<g>
		<path style="fill:#F3D55B;" d="M424.551,219.445c-2.812,2.777-5.791,5.574-8.938,8.392c-2.343,2.059-3.401,5.218-2.771,8.273
			s2.852,5.537,5.819,6.5c2.967,0.963,6.223,0.26,8.528-1.843c3.361-3.014,6.543-6.002,9.546-8.964
			c2.414-2.124,3.455-5.408,2.707-8.535c-0.748-3.127-3.164-5.584-6.277-6.385c-3.114-0.801-6.415,0.185-8.579,2.562H424.551z"/>
		<path style="fill:#F3D55B;" d="M470.535,104.254c-6.407-5.79-14.77-8.934-23.404-8.799c-4.793,0-8.678,3.885-8.678,8.678
			s3.885,8.678,8.678,8.678c4.185-0.097,8.262,1.338,11.464,4.035c7.567,7.177,10.101,34.261-8.565,69.658l-0.443,0.868
			c-2.198,4.256-0.532,9.488,3.723,11.689c1.226,0.642,2.59,0.975,3.975,0.972c3.249,0.007,6.229-1.802,7.723-4.686l0.417-0.816
			C487.37,152.885,484.611,117.583,470.535,104.254z"/>
	</g>
</g>
<g>
</g>
<g>
</g>
<g>
</g>
<g>
</g>
<g>
</g>
<g>
</g>
<g>
</g>
<g>
</g>
<g>
</g>
<g>
</g>
<g>
</g>
<g>
</g>
<g>
</g>
<g>
</g>
<g>
</g>
</svg>
